<?xml version="1.0" encoding="UTF-8" standalone="no"?>
<!-- Generator: Adobe Illustrator 16.0.0, SVG Export Plug-In . SVG Version: 6.00 Build 0)  -->

<svg
   xmlns:dc="http://purl.org/dc/elements/1.1/"
   xmlns:cc="http://creativecommons.org/ns#"
   xmlns:rdf="http://www.w3.org/1999/02/22-rdf-syntax-ns#"
   xmlns:svg="http://www.w3.org/2000/svg"
   xmlns="http://www.w3.org/2000/svg"
   xmlns:sodipodi="http://sodipodi.sourceforge.net/DTD/sodipodi-0.dtd"
   xmlns:inkscape="http://www.inkscape.org/namespaces/inkscape"
   version="1.1"
   id="Capa_1"
   x="0px"
   y="0px"
   width="46.999px"
   height="46.999px"
   viewBox="0 0 46.999 46.999"
   style="enable-background:new 0 0 46.999 46.999;"
   xml:space="preserve"
   inkscape:version="0.91 r13725"
   sodipodi:docname="first-prize-colored.svg"><metadata
     id="metadata46"><rdf:RDF><cc:Work
         rdf:about=""><dc:format>image/svg+xml</dc:format><dc:type
           rdf:resource="http://purl.org/dc/dcmitype/StillImage" /><dc:title></dc:title></cc:Work></rdf:RDF></metadata><defs
     id="defs44" /><sodipodi:namedview
     pagecolor="#ffffff"
     bordercolor="#666666"
     borderopacity="1"
     objecttolerance="10"
     gridtolerance="10"
     guidetolerance="10"
     inkscape:pageopacity="0"
     inkscape:pageshadow="2"
     inkscape:window-width="1366"
     inkscape:window-height="715"
     id="namedview42"
     showgrid="false"
     inkscape:zoom="5.0213834"
     inkscape:cx="-4.9787077"
     inkscape:cy="23.4995"
     inkscape:window-x="-8"
     inkscape:window-y="-8"
     inkscape:window-maximized="1"
     inkscape:current-layer="Capa_1" /><g
     id="g3"><g
       id="Layer_1_76_"><g
         id="g6"><path
           d="M43.992,28.488l-5.465-4.372c-0.388-0.312-0.869-0.479-1.365-0.479h-3.045l0.389,2.418     c0.199,1.24-0.328,2.486-1.359,3.207c-0.562,0.394-1.219,0.592-1.878,0.592c-0.551,0-1.103-0.139-1.603-0.418l-6.167-3.457     l-6.167,3.455c-1.097,0.615-2.449,0.549-3.48-0.173c-1.031-0.721-1.56-1.967-1.359-3.208l0.389-2.417H9.836     c-0.497,0-0.978,0.169-1.366,0.479l-5.465,4.371c-0.518,0.414-0.82,1.044-0.82,1.707v14.619c0,1.207,0.979,2.187,2.186,2.187     h38.255c1.207,0,2.187-0.979,2.187-2.187V30.193C44.812,29.531,44.511,28.902,43.992,28.488z M38.254,40.236     c0,0.604-0.488,1.094-1.092,1.094H9.835c-0.604,0-1.093-0.489-1.093-1.094v-5.465c0-0.604,0.489-1.094,1.093-1.094H37.16     c0.604,0,1.094,0.489,1.094,1.094V40.236L38.254,40.236z"
           id="path8"
           style="fill:#663300;fill-opacity:1" /><path
           d="M16.047,17.722L14.65,26.4c-0.067,0.414,0.109,0.828,0.453,1.068c0.344,0.241,0.794,0.264,1.16,0.059l7.235-4.053     l7.235,4.053c0.167,0.095,0.351,0.141,0.534,0.141c0.22,0,0.439-0.066,0.626-0.197c0.344-0.24,0.521-0.654,0.453-1.068     l-1.397-8.679l5.907-6.137c0.283-0.294,0.378-0.721,0.248-1.107s-0.465-0.668-0.868-0.731L28.129,8.49l-3.638-7.856     C24.312,0.248,23.924,0,23.499,0s-0.813,0.248-0.992,0.634L18.869,8.49l-8.107,1.256c-0.403,0.063-0.738,0.345-0.868,0.731     c-0.13,0.386-0.035,0.813,0.248,1.107L16.047,17.722z M20.859,11.233l0.608-0.13c1.828-0.396,1.317-2.271,2.717-2.271     c0.526,0,0.954,0.227,0.954,1.117v9.352c0,0.856-0.33,1.447-1.25,1.447c-0.922,0-1.251-0.591-1.251-1.447v-6.256h-2.124     c-0.543,0-0.84-0.196-0.84-0.872C19.672,11.564,20.002,11.397,20.859,11.233z"
           id="path10"
           style="fill:#eacc00;fill-opacity:0.94117647" /></g></g></g><g
     id="g12" /><g
     id="g14" /><g
     id="g16" /><g
     id="g18" /><g
     id="g20" /><g
     id="g22" /><g
     id="g24" /><g
     id="g26" /><g
     id="g28" /><g
     id="g30" /><g
     id="g32" /><g
     id="g34" /><g
     id="g36" /><g
     id="g38" /><g
     id="g40" /></svg>