<?xml version="1.0" encoding="UTF-8" standalone="no"?>
<svg
   xmlns:osb="http://www.openswatchbook.org/uri/2009/osb"
   xmlns:dc="http://purl.org/dc/elements/1.1/"
   xmlns:cc="http://creativecommons.org/ns#"
   xmlns:rdf="http://www.w3.org/1999/02/22-rdf-syntax-ns#"
   xmlns:svg="http://www.w3.org/2000/svg"
   xmlns="http://www.w3.org/2000/svg"
   xmlns:sodipodi="http://sodipodi.sourceforge.net/DTD/sodipodi-0.dtd"
   xmlns:inkscape="http://www.inkscape.org/namespaces/inkscape"
   width="700pt"
   height="155pt"
   viewBox="0 0 700 155"
   version="1.1"
   id="svg2"
   inkscape:version="0.91 r13725"
   sodipodi:docname="battlechain-vector-with-text.svg">
  <metadata
     id="metadata36">
    <rdf:RDF>
      <cc:Work
         rdf:about="">
        <dc:format>image/svg+xml</dc:format>
        <dc:type
           rdf:resource="http://purl.org/dc/dcmitype/StillImage" />
        <dc:title />
      </cc:Work>
    </rdf:RDF>
  </metadata>
  <defs
     id="defs34">
    <linearGradient
       id="linearGradient5598"
       osb:paint="gradient">
      <stop
         style="stop-color:#366db6;stop-opacity:1;"
         offset="0"
         id="stop5600" />
      <stop
         style="stop-color:#366db6;stop-opacity:0;"
         offset="1"
         id="stop5602" />
    </linearGradient>
  </defs>
  <sodipodi:namedview
     pagecolor="#ffffff"
     bordercolor="#666666"
     borderopacity="1"
     objecttolerance="10"
     gridtolerance="10"
     guidetolerance="10"
     inkscape:pageopacity="0"
     inkscape:pageshadow="2"
     inkscape:window-width="1366"
     inkscape:window-height="715"
     id="namedview32"
     showgrid="false"
     inkscape:zoom="0.86689455"
     inkscape:cx="480.95469"
     inkscape:cy="8.7148642"
     inkscape:window-x="-8"
     inkscape:window-y="-8"
     inkscape:window-maximized="1"
     inkscape:current-layer="svg2"
     showborder="true" />
  <path
     d="M 0,1 155,1 155,155 0,155 0,1 Z"
     id="path4"
     style="fill:none;fill-opacity:1"
     inkscape:connector-curvature="0" />
  <path
     d="m 80.19,35 c 1.43,-10.51 7.83,-19.45 14.48,-27.39 1.87,10.32 3.62,21.31 -0.96,31.21 -2.4,6.5 -4.12,13.23 -5.59,19.99 -2.21,10.48 -5.11,20.8 -8.05,31.1 C 75.25,88.7 70.47,87.27 65.85,85.43 68.89,75.67 70.96,65.59 74.51,55.99 77,49.17 79.09,42.18 80.19,35 Z"
     id="path6"
     inkscape:connector-curvature="0"
     style="fill:#141414" />
  <path
     d="m 48.59,17.54 c 7.68,-1.41 15.36,0.56 22.7,2.71 -12.44,3.05 -24.5,8.41 -33.87,17.32 -8.54,7.73 -13.23,18.9 -13.76,30.31 0.18,5.19 0.55,10.37 0.79,15.56 -0.02,8.33 3.82,16.4 9.21,22.61 4.65,4.68 10.74,11.6 18.15,8.84 6.57,-1.33 8.96,-7.75 10.47,-13.41 4.44,1.75 9.04,3.11 13.66,4.3 -0.16,5.74 -0.1,11.47 0.07,17.21 7.2,2.14 14.87,3.15 22.22,1.07 7.44,-3.26 14.22,-8.23 19.26,-14.63 3.41,-4.5 6.36,-9.33 8.97,-14.33 4.91,-10.14 7.46,-22.19 3.21,-33.03 -4.02,-11.83 -10.93,-22.53 -19.69,-31.38 7.76,2.29 16.11,4.33 21.86,10.46 5.55,5.81 11.17,12.53 12.21,20.8 2.18,13.66 1.48,28.55 -5.13,40.99 -4.18,9.17 -11.38,16.54 -18.64,23.36 -7.29,6.92 -16.57,11.6 -26.41,13.58 -11.74,2.65 -22.89,7.9 -34.95,9.02 -4.43,0.38 -7.11,-4.2 -10.23,-6.58 C 35.04,128.25 18.92,114.79 12.51,95.6 7.42,78.79 7.64,59.76 16.06,44.05 21.71,30.6 33.96,19.75 48.59,17.54 Z"
     id="path8"
     inkscape:connector-curvature="0"
     style="fill:#141414" />
  <path
     d="M 44.52,52.21 C 54.22,42.77 67.29,38.12 80.19,35 79.09,42.18 77,49.17 74.51,55.99 64.41,56.47 54.92,60.49 46.68,66.16 42.06,69.87 38.04,74.72 36.47,80.52 34.76,88.92 34.2,97.5 33.66,106.05 28.27,99.84 24.43,91.77 24.45,83.44 26.1,79.72 27.83,76.02 29.81,72.46 34.15,65.33 39.2,58.64 44.52,52.21 Z"
     id="path10"
     inkscape:connector-curvature="0"
     style="fill:#3788b8" />
  <path
     d="m 23.66,67.88 c 0.53,-11.41 5.22,-22.58 13.76,-30.31 2.43,4.85 4.89,9.68 7.1,14.64 C 39.2,58.64 34.15,65.33 29.81,72.46 27.76,70.93 25.72,69.4 23.66,67.88 Z"
     id="path12"
     inkscape:connector-curvature="0"
     style="fill:#eacc00" />
  <path
     d="m 88.12,58.81 c 1.47,-6.76 3.19,-13.49 5.59,-19.99 10.07,8.82 19.67,19.5 22.46,33.01 1.35,8.25 2.81,16.56 2.9,24.95 -0.25,4.24 -0.55,8.51 -1.58,12.65 -5.04,6.4 -11.82,11.37 -19.26,14.63 5.01,-7.62 9.35,-15.84 11.24,-24.83 0.1,-5.78 0.61,-11.9 -1.94,-17.28 -4.9,-8.89 -11.28,-17.01 -19.41,-23.14 z"
     id="path14"
     inkscape:connector-curvature="0"
     style="fill:#3788b8" />
  <path
     d="M 46.68,66.16 C 54.92,60.49 64.41,56.47 74.51,55.99 70.96,65.59 68.89,75.67 65.85,85.43 57.76,80.98 51.7,73.77 46.68,66.16 Z"
     id="path16"
     style="fill:none"
     inkscape:connector-curvature="0" />
  <path
     d="m 88.12,58.81 c 8.13,6.13 14.51,14.25 19.41,23.14 -8.6,4.17 -17.76,7.86 -27.46,7.96 2.94,-10.3 5.84,-20.62 8.05,-31.1 z"
     id="path18"
     style="fill:none"
     inkscape:connector-curvature="0" />
  <path
     d="m 116.17,71.83 c 4.31,-3.5 8.79,-6.8 13.5,-9.76 4.25,10.84 1.7,22.89 -3.21,33.03 -2.47,0.52 -4.93,1.08 -7.39,1.68 -0.09,-8.39 -1.55,-16.7 -2.9,-24.95 z"
     id="path20"
     inkscape:connector-curvature="0"
     style="fill:#eacc00" />
  <path
     d="m 36.47,80.52 c 1.57,-5.8 5.59,-10.65 10.21,-14.36 5.02,7.61 11.08,14.82 19.17,19.27 4.62,1.84 9.4,3.27 14.22,4.48 9.7,-0.1 18.86,-3.79 27.46,-7.96 2.55,5.38 2.04,11.5 1.94,17.28 -11.03,2.8 -22.04,6.36 -33.53,6.55 -4.62,-1.19 -9.22,-2.55 -13.66,-4.3 C 52.41,96.19 44.74,87.89 36.47,80.52 Z"
     id="path22"
     inkscape:connector-curvature="0"
     style="fill:#eacc00" />
  <path
     d="m 23.66,67.88 c 2.06,1.52 4.1,3.05 6.15,4.58 -1.98,3.56 -3.71,7.26 -5.36,10.98 -0.24,-5.19 -0.61,-10.37 -0.79,-15.56 z"
     id="path24"
     style="fill:none"
     inkscape:connector-curvature="0" />
  <path
     d="m 36.47,80.52 c 8.27,7.37 15.94,15.67 25.81,20.96 -1.51,5.66 -3.9,12.08 -10.47,13.41 -7.41,2.76 -13.5,-4.16 -18.15,-8.84 0.54,-8.55 1.1,-17.13 2.81,-25.53 z"
     id="path26"
     style="fill:none"
     inkscape:connector-curvature="0" />
  <path
     d="m 119.07,96.78 c 2.46,-0.6 4.92,-1.16 7.39,-1.68 -2.61,5 -5.56,9.83 -8.97,14.33 1.03,-4.14 1.33,-8.41 1.58,-12.65 z"
     id="path28"
     style="fill:none"
     inkscape:connector-curvature="0" />
  <path
     d="m 75.94,105.78 c 11.49,-0.19 22.5,-3.75 33.53,-6.55 -1.89,8.99 -6.23,17.21 -11.24,24.83 -7.35,2.08 -15.02,1.07 -22.22,-1.07 -0.17,-5.74 -0.23,-11.47 -0.07,-17.21 z"
     id="path30"
     style="fill:none"
     inkscape:connector-curvature="0" />
  <text
     xml:space="preserve"
     style="font-style:normal;font-variant:normal;font-weight:normal;font-stretch:normal;font-size:85px;line-height:125%;font-family:sans-serif;-inkscape-font-specification:sans-serif;letter-spacing:0px;word-spacing:0px;fill:#e0e0e0;fill-opacity:1;stroke:none;stroke-width:1px;stroke-linecap:butt;stroke-linejoin:miter;stroke-opacity:1;"
     x="155.03616"
     y="108.85828"
     id="text4153"
     sodipodi:linespacing="125%"><tspan
       sodipodi:role="line"
       id="tspan4155"
       x="155.03616"
       y="108.85828">Battle Chain</tspan></text>
  <text
     xml:space="preserve"
     style="font-style:normal;font-weight:normal;font-size:32px;line-height:110%;font-family:'Myanmar Text';letter-spacing:0px;word-spacing:0px;fill:#eacc00;fill-opacity:1;stroke:none;stroke-width:1px;stroke-linecap:butt;stroke-linejoin:miter;stroke-opacity:1;-inkscape-font-specification:'Myanmar Text';font-stretch:normal;font-variant:normal;"
     x="453.11163"
     y="142.08031"
     id="text4157"
     sodipodi:linespacing="120%"><tspan
       sodipodi:role="line"
       id="tspan4159"
       x="453.11163"
       y="142.08031">bet <tspan
   style="line-height:120%;letter-spacing:0px;-inkscape-font-specification:'Myanmar Text';font-family:'Myanmar Text';font-weight:normal;font-style:normal;font-stretch:normal;font-variant:normal;"
   id="tspan4156">on </tspan>yourself</tspan></text>
</svg>
