<?xml version="1.0" encoding="UTF-8" standalone="no"?>
<svg
   xmlns:osb="http://www.openswatchbook.org/uri/2009/osb"
   xmlns:dc="http://purl.org/dc/elements/1.1/"
   xmlns:cc="http://creativecommons.org/ns#"
   xmlns:rdf="http://www.w3.org/1999/02/22-rdf-syntax-ns#"
   xmlns:svg="http://www.w3.org/2000/svg"
   xmlns="http://www.w3.org/2000/svg"
   xmlns:sodipodi="http://sodipodi.sourceforge.net/DTD/sodipodi-0.dtd"
   xmlns:inkscape="http://www.inkscape.org/namespaces/inkscape"
   width="155pt"
   height="154pt"
   viewBox="0 0 155 154"
   version="1.1"
   id="svg2"
   inkscape:version="0.91 r13725"
   sodipodi:docname="test-vector.svg">
  <metadata
     id="metadata36">
    <rdf:RDF>
      <cc:Work
         rdf:about="">
        <dc:format>image/svg+xml</dc:format>
        <dc:type
           rdf:resource="http://purl.org/dc/dcmitype/StillImage" />
        <dc:title />
      </cc:Work>
    </rdf:RDF>
  </metadata>
  <defs
     id="defs34">
    <linearGradient
       id="linearGradient5598"
       osb:paint="gradient">
      <stop
         style="stop-color:#366db6;stop-opacity:1;"
         offset="0"
         id="stop5600" />
      <stop
         style="stop-color:#366db6;stop-opacity:0;"
         offset="1"
         id="stop5602" />
    </linearGradient>
  </defs>
  <sodipodi:namedview
     pagecolor="#ffffff"
     bordercolor="#666666"
     borderopacity="1"
     objecttolerance="10"
     gridtolerance="10"
     guidetolerance="10"
     inkscape:pageopacity="0"
     inkscape:pageshadow="2"
     inkscape:window-width="1366"
     inkscape:window-height="715"
     id="namedview32"
     showgrid="false"
     inkscape:zoom="1.225974"
     inkscape:cx="-53.617587"
     inkscape:cy="30.995762"
     inkscape:window-x="-8"
     inkscape:window-y="-8"
     inkscape:window-maximized="1"
     inkscape:current-layer="svg2" />
  <path
     fill="#ffffff"
     d=" M 0.00 0.00 L 155.00 0.00 L 155.00 154.00 L 0.00 154.00 L 0.00 0.00 Z"
     id="path4"
     style="fill:none;fill-opacity:1" />
  <path
     fill="#141414"
     d=" M 80.19 34.00 C 81.62 23.49 88.02 14.55 94.67 6.61 C 96.54 16.93 98.29 27.92 93.71 37.82 C 91.31 44.32 89.59 51.05 88.12 57.81 C 85.91 68.29 83.01 78.61 80.07 88.91 C 75.25 87.70 70.47 86.27 65.85 84.43 C 68.89 74.67 70.96 64.59 74.51 54.99 C 77.00 48.17 79.09 41.18 80.19 34.00 Z"
     id="path6" />
  <path
     fill="#141414"
     d=" M 48.59 16.54 C 56.27 15.13 63.95 17.10 71.29 19.25 C 58.85 22.30 46.79 27.66 37.42 36.57 C 28.88 44.30 24.19 55.47 23.66 66.88 C 23.84 72.07 24.21 77.25 24.45 82.44 C 24.43 90.77 28.27 98.84 33.66 105.05 C 38.31 109.73 44.40 116.65 51.81 113.89 C 58.38 112.56 60.77 106.14 62.28 100.48 C 66.72 102.23 71.32 103.59 75.94 104.78 C 75.78 110.52 75.84 116.25 76.01 121.99 C 83.21 124.13 90.88 125.14 98.23 123.06 C 105.67 119.80 112.45 114.83 117.49 108.43 C 120.90 103.93 123.85 99.10 126.46 94.10 C 131.37 83.96 133.92 71.91 129.67 61.07 C 125.65 49.24 118.74 38.54 109.98 29.69 C 117.74 31.98 126.09 34.02 131.84 40.15 C 137.39 45.96 143.01 52.68 144.05 60.95 C 146.23 74.61 145.53 89.50 138.92 101.94 C 134.74 111.11 127.54 118.48 120.28 125.30 C 112.99 132.22 103.71 136.90 93.87 138.88 C 82.13 141.53 70.98 146.78 58.92 147.90 C 54.49 148.28 51.81 143.70 48.69 141.32 C 35.04 127.25 18.92 113.79 12.51 94.60 C 7.42 77.79 7.64 58.76 16.06 43.05 C 21.71 29.60 33.96 18.75 48.59 16.54 Z"
     id="path8" />
  <path
     fill="#3788b8"
     d=" M 44.52 51.21 C 54.22 41.77 67.29 37.12 80.19 34.00 C 79.09 41.18 77.00 48.17 74.51 54.99 C 64.41 55.47 54.92 59.49 46.68 65.16 C 42.06 68.87 38.04 73.72 36.47 79.52 C 34.76 87.92 34.20 96.50 33.66 105.05 C 28.27 98.84 24.43 90.77 24.45 82.44 C 26.10 78.72 27.83 75.02 29.81 71.46 C 34.15 64.33 39.20 57.64 44.52 51.21 Z"
     id="path10" />
  <path
     fill="#eacc00"
     d=" M 23.66 66.88 C 24.19 55.47 28.88 44.30 37.42 36.57 C 39.85 41.42 42.31 46.25 44.52 51.21 C 39.20 57.64 34.15 64.33 29.81 71.46 C 27.76 69.93 25.72 68.40 23.66 66.88 Z"
     id="path12" />
  <path
     fill="#3788b8"
     d=" M 88.12 57.81 C 89.59 51.05 91.31 44.32 93.71 37.82 C 103.78 46.64 113.38 57.32 116.17 70.83 C 117.52 79.08 118.98 87.39 119.07 95.78 C 118.82 100.02 118.52 104.29 117.49 108.43 C 112.45 114.83 105.67 119.80 98.23 123.06 C 103.24 115.44 107.58 107.22 109.47 98.23 C 109.57 92.45 110.08 86.33 107.53 80.95 C 102.63 72.06 96.25 63.94 88.12 57.81 Z"
     id="path14" />
  <path
     fill="#ffffff"
     d=" M 46.68 65.16 C 54.92 59.49 64.41 55.47 74.51 54.99 C 70.96 64.59 68.89 74.67 65.85 84.43 C 57.76 79.98 51.70 72.77 46.68 65.16 Z"
     id="path16"
     style="fill:none" />
  <path
     fill="#ffffff"
     d=" M 88.12 57.81 C 96.25 63.94 102.63 72.06 107.53 80.95 C 98.93 85.12 89.77 88.81 80.07 88.91 C 83.01 78.61 85.91 68.29 88.12 57.81 Z"
     id="path18"
     style="fill:none" />
  <path
     fill="#eacc00"
     d=" M 116.17 70.83 C 120.48 67.33 124.96 64.03 129.67 61.07 C 133.92 71.91 131.37 83.96 126.46 94.10 C 123.99 94.62 121.53 95.18 119.07 95.78 C 118.98 87.39 117.52 79.08 116.17 70.83 Z"
     id="path20" />
  <path
     fill="#eacc00"
     d=" M 36.47 79.52 C 38.04 73.72 42.06 68.87 46.68 65.16 C 51.70 72.77 57.76 79.98 65.85 84.43 C 70.47 86.27 75.25 87.70 80.07 88.91 C 89.77 88.81 98.93 85.12 107.53 80.95 C 110.08 86.33 109.57 92.45 109.47 98.23 C 98.44 101.03 87.43 104.59 75.94 104.78 C 71.32 103.59 66.72 102.23 62.28 100.48 C 52.41 95.19 44.74 86.89 36.47 79.52 Z"
     id="path22" />
  <path
     fill="#ffffff"
     d=" M 23.66 66.88 C 25.72 68.40 27.76 69.93 29.81 71.46 C 27.83 75.02 26.10 78.72 24.45 82.44 C 24.21 77.25 23.84 72.07 23.66 66.88 Z"
     id="path24"
     style="fill:none" />
  <path
     fill="#ffffff"
     d=" M 36.47 79.52 C 44.74 86.89 52.41 95.19 62.28 100.48 C 60.77 106.14 58.38 112.56 51.81 113.89 C 44.40 116.65 38.31 109.73 33.66 105.05 C 34.20 96.50 34.76 87.92 36.47 79.52 Z"
     id="path26"
     style="fill:none" />
  <path
     fill="#ffffff"
     d=" M 119.07 95.78 C 121.53 95.18 123.99 94.62 126.46 94.10 C 123.85 99.10 120.90 103.93 117.49 108.43 C 118.52 104.29 118.82 100.02 119.07 95.78 Z"
     id="path28"
     style="fill:none" />
  <path
     fill="#ffffff"
     d=" M 75.94 104.78 C 87.43 104.59 98.44 101.03 109.47 98.23 C 107.58 107.22 103.24 115.44 98.23 123.06 C 90.88 125.14 83.21 124.13 76.01 121.99 C 75.84 116.25 75.78 110.52 75.94 104.78 Z"
     id="path30"
     style="fill:none" />
</svg>
